<svg id="Camada_1" data-name="Camada 1" xmlns="http://www.w3.org/2000/svg" viewBox="0 0 329.13 328.37"><defs><style>.cls-1{fill:#6897ea;}.cls-2{fill:#ef7e91;}</style></defs><path class="cls-1" d="M111.83-58.4c0,88.46,72,160.43,160.44,160.43s160.44-72,160.44-160.43h4.12c0,90.73-73.82,164.56-164.56,164.56S107.71,32.33,107.71-58.4Zm9.94,0c0,83,67.52,150.49,150.5,150.49S422.77,24.58,422.77-58.4h-4.13C418.64,22.3,353,88,272.27,88S125.9,22.3,125.9-58.4Zm14.07,0C135.84,16.82,197,78,272.27,78S408.7,16.82,408.7-58.4h-4.13c0,72.94-59.35,132.29-132.3,132.29S140,14.54,140-58.4Zm14.07,0A122.5,122.5,0,0,0,272.27,64,122.5,122.5,0,0,0,394.63-58.4H390.5A118.37,118.37,0,0,1,272.27,59.83,118.37,118.37,0,0,1,154-58.4Zm14.07,0A108.41,108.41,0,0,0,272.27,49.88,108.41,108.41,0,0,0,380.56-58.4h-4.13A104.28,104.28,0,0,1,272.27,45.76,104.28,104.28,0,0,1,168.11-58.4Zm14.07,0a94.32,94.32,0,0,0,94.22,94.21A94.32,94.32,0,0,0,366.49-58.4h-4.13a90.19,90.19,0,0,1-90.09,90.09A90.19,90.19,0,0,1,182.18-58.4Zm14.07,0a80.24,80.24,0,0,0,80.15,80.15A80.24,80.24,0,0,0,352.42-58.4h-4.13a76.1,76.1,0,0,1-76,76,76.1,76.1,0,0,1-76-76Zm14.07,0A66.16,66.16,0,0,0,272.27,7.68,66.16,66.16,0,0,0,338.35-58.4h-4.13a62,62,0,0,1-62,62,62,62,0,0,1-62-61.95Zm14.07,0a52.07,52.07,0,0,0,52,52,52.07,52.07,0,0,0,52-52h-4.12a47.94,47.94,0,0,1-47.89,47.88A47.94,47.94,0,0,1,224.38-58.4Zm14.07,0a38,38,0,0,0,37.94,37.94A38,38,0,0,0,310.21-58.4h-4.12a33.85,33.85,0,0,1-33.82,33.81A33.85,33.85,0,0,1,238.45-58.4Zm14.06,0a23.9,23.9,0,0,0,23.88,23.87A23.91,23.91,0,0,0,296.15-58.4H292a19.77,19.77,0,0,1-19.75,19.74A19.77,19.77,0,0,1,252.52-58.4Zm14.07,0a9.82,9.82,0,0,0,9.81,9.8,9.82,9.82,0,0,0,9.81-9.8H278a5.68,5.68,0,0,1-5.68,5.67,5.68,5.68,0,0,1-5.68-5.67Z" transform="translate(-107.71 58.4)"/><path class="cls-2" d="M107.71,270a164.18,164.18,0,0,0,0-328.36Z" transform="translate(-107.71 58.4)"/></svg>