<svg id="Camada_1" data-name="Camada 1" xmlns="http://www.w3.org/2000/svg" viewBox="0 0 314.38 458.62"><defs><style>.cls-1{fill:#6897ea;}.cls-2{fill:#ef7e91;}</style></defs><path class="cls-1" d="M190,184.31c88.46,0,160.43-72,160.43-160.43S278.45-136.56,190-136.56v-4.13c90.74,0,164.56,73.83,164.56,164.57S280.73,188.44,190,188.44Zm0-9.94c83,0,150.49-67.51,150.49-150.49S273-126.62,190-126.62v4.13c80.7,0,146.37,65.66,146.37,146.37S270.69,170.25,190,170.25Zm0-14.07c75.22,0,136.42-61.2,136.42-136.42S265.21-112.55,190-112.55v4.13c72.95,0,132.3,59.35,132.3,132.3S262.94,156.18,190,156.18Zm0-14.07A122.49,122.49,0,0,0,312.35,23.88,122.5,122.5,0,0,0,190-98.48v4.13A118.36,118.36,0,0,1,308.22,23.88,118.37,118.37,0,0,1,190,142.11Zm0-14.06A108.41,108.41,0,0,0,298.28,23.88,108.41,108.41,0,0,0,190-84.41v4.13A104.28,104.28,0,0,1,294.15,23.88,104.28,104.28,0,0,1,190,128Zm0-14.07a94.22,94.22,0,0,0,0-188.44v4.12A90.1,90.1,0,0,1,190,114ZM190,104a80.15,80.15,0,0,0,0-160.3v4.12A76,76,0,0,1,190,99.9ZM190,90A66.08,66.08,0,0,0,190-42.2v4.12a62,62,0,0,1,0,123.91Zm0-14.07a52,52,0,0,0,0-104V-24a47.89,47.89,0,0,1,0,95.77Zm0-14.07a37.95,37.95,0,0,0,0-75.89v4.13a33.82,33.82,0,0,1,0,67.63Zm0-14.07A23.88,23.88,0,0,0,190,0V4.13a19.75,19.75,0,0,1,0,39.5Zm0-14.07a9.81,9.81,0,0,0,0-19.61V18.2a5.68,5.68,0,0,1,0,11.36Z" transform="translate(-40.17 270.18)"/><path class="cls-2" d="M169.66-270.18A129.49,129.49,0,0,0,40.17-140.69,129.48,129.48,0,0,0,169.66-11.2Z" transform="translate(-40.17 270.18)"/></svg>