<svg id="Camada_1" data-name="Camada 1" xmlns="http://www.w3.org/2000/svg" viewBox="0 0 329.13 328.37"><defs><style>.cls-1{fill:#6897ea;}.cls-2{fill:#ef7e91;}</style></defs><path class="cls-1" d="M107.71-58.4a164.18,164.18,0,0,1,0,328.36Z" transform="translate(-107.71 58.4)"/><path class="cls-2" d="M107.71,270c0-90.74,73.82-164.56,164.56-164.56S436.83,179.22,436.83,270h-4.12c0-88.46-72-160.43-160.44-160.43S111.83,181.5,111.83,270Zm18.19,0c0-80.7,65.66-146.36,146.37-146.36S418.64,189.26,418.64,270h4.13c0-83-67.52-150.49-150.5-150.49S121.77,187,121.77,270ZM140,270c0-72.95,59.35-132.3,132.3-132.3S404.57,197,404.57,270h4.13c0-75.22-61.2-136.42-136.43-136.42S135.84,194.74,135.84,270ZM154,270a118.23,118.23,0,0,1,236.46,0h4.13a122.36,122.36,0,0,0-244.72,0Zm14.07,0a104.16,104.16,0,0,1,208.32,0h4.13A108.29,108.29,0,0,0,164,270Zm14.07,0a90.09,90.09,0,0,1,180.18,0h4.13a94.22,94.22,0,0,0-188.44,0Zm14.07,0a76,76,0,0,1,152,0h4.13a80.15,80.15,0,0,0-160.3,0Zm14.06,0a62,62,0,0,1,123.91,0h4.13a66.08,66.08,0,0,0-132.16,0Zm14.07,0a47.89,47.89,0,0,1,95.78,0h4.12a52,52,0,0,0-104,0Zm14.07,0a33.82,33.82,0,0,1,67.64,0h4.12a37.94,37.94,0,0,0-75.88,0Zm14.07,0a19.75,19.75,0,0,1,39.5,0h4.13a23.88,23.88,0,0,0-47.76,0Zm14.07,0A5.68,5.68,0,0,1,278,270h4.13a9.81,9.81,0,0,0-19.62,0Z" transform="translate(-107.71 58.4)"/></svg>