<svg id="Camada_1" data-name="Camada 1" xmlns="http://www.w3.org/2000/svg" viewBox="0 0 329.13 164.56"><defs><style>.cls-1{fill:#ef7e91;}</style></defs><path class="cls-1" d="M350.24,188.06c0-88.46-72-160.44-160.44-160.44S29.36,99.6,29.36,188.06H25.24C25.24,97.32,99.06,23.5,189.8,23.5S354.36,97.32,354.36,188.06Zm-9.94,0c0-83-67.52-150.49-150.5-150.49S39.3,105.08,39.3,188.06h4.13c0-80.71,65.66-146.37,146.37-146.37s146.37,65.66,146.37,146.37Zm-14.07,0c0-75.22-61.2-136.43-136.43-136.43S53.37,112.84,53.37,188.06H57.5c0-72.95,59.35-132.3,132.3-132.3s132.3,59.35,132.3,132.3Zm-14.07,0a122.36,122.36,0,0,0-244.72,0h4.13a118.23,118.23,0,1,1,236.46,0Zm-14.07,0a108.29,108.29,0,1,0-216.58,0h4.13a104.16,104.16,0,0,1,208.32,0Zm-14.07,0a94.22,94.22,0,1,0-188.44,0h4.13a90.09,90.09,0,1,1,180.18,0Zm-14.07,0a80.15,80.15,0,1,0-160.3,0h4.13a76,76,0,0,1,152,0Zm-14.07,0a66.08,66.08,0,0,0-132.16,0h4.13a62,62,0,0,1,123.91,0Zm-14.07,0a52,52,0,0,0-104,0h4.12a47.89,47.89,0,0,1,95.78,0Zm-14.07,0a37.94,37.94,0,0,0-75.88,0H156a33.82,33.82,0,0,1,67.64,0Zm-14.06,0a23.88,23.88,0,0,0-47.76,0h4.13a19.75,19.75,0,0,1,39.5,0Zm-14.07,0a9.81,9.81,0,0,0-19.62,0h4.13a5.68,5.68,0,1,1,11.36,0Z" transform="translate(-25.24 -23.5)"/></svg>