<svg xmlns="http://www.w3.org/2000/svg" viewBox="0 0 688.59 553.29"><defs><style>.cls-1{fill:#fff;}</style></defs><g id="Camada_2" data-name="Camada 2"><g id="Layer_1" data-name="Layer 1"><path class="cls-1" d="M344.29,89.48A89.49,89.49,0,0,0,433.78,0h-179A89.48,89.48,0,0,0,344.29,89.48ZM425.06,8.3a81.31,81.31,0,0,1-80.77,72.89A81.31,81.31,0,0,1,263.53,8.3Z"/><path class="cls-1" d="M344.29,206.18a89.49,89.49,0,0,0-89.48,89.49h179A89.49,89.49,0,0,0,344.29,206.18Zm0,8.3a81.31,81.31,0,0,1,80.77,72.89H263.53A81.31,81.31,0,0,1,344.29,214.48Z"/><path class="cls-1" d="M285.94,147.83a89.48,89.48,0,0,0-89.48-89.48v179A89.49,89.49,0,0,0,285.94,147.83ZM204.76,228.6V67.07a81.19,81.19,0,0,1,0,161.53Z"/><path class="cls-1" d="M402.64,147.83a89.49,89.49,0,0,0,89.49,89.49v-179A89.48,89.48,0,0,0,402.64,147.83Z"/><path class="cls-1" d="M23.11,380.14c0-6.76,5.33-10.84,16-10.84,11.91,0,16.18,4.62,16.18,10.48a27.8,27.8,0,0,1-.72,6.58H71.46a23.1,23.1,0,0,0,1.42-8.18c0-11.91-8-24.17-34.13-24.17-25.42,0-34.66,13-34.66,26.66,0,33.25,49.42,19.73,49.42,36.26,0,5.87-5,9.43-16,9.43C20.09,426.36,11,412.84,11,412.84L0,424.4s8.36,17.42,38.4,17.42c23.81,0,35.19-10.13,35.19-25.78C73.59,383.69,23.11,399.87,23.11,380.14Z"/><path class="cls-1" d="M638.1,380.14c0-6.76,5.34-10.84,16-10.84,11.92,0,16.18,4.62,16.18,10.48a28.17,28.17,0,0,1-.71,6.58h16.89a23.1,23.1,0,0,0,1.42-8.18c0-11.91-8-24.17-34.13-24.17-25.42,0-34.67,13-34.67,26.66,0,33.25,49.42,19.73,49.42,36.26,0,5.87-5,9.43-16,9.43-17.42,0-26.48-13.52-26.48-13.52L615,424.4s8.35,17.42,38.39,17.42c23.82,0,35.2-10.13,35.2-25.78C688.59,383.69,638.1,399.87,638.1,380.14Z"/><path class="cls-1" d="M207.1,354c-24.17,0-38.75,16.89-38.75,43.91,0,9.73,1.9,18.13,5.45,24.92-5.37,4.46-16.3,5.66-16.3-4.66v-63.1H140.44v10.48c-2.14-1.95-9.77-11.55-25.78-11.55-18.66,0-35,12.44-35,44.26,0,30.4,17.06,43.55,33.95,43.55,19.37,0,25.6-12.44,26.84-15.11v.89c0,6.06,9.25,13.87,21,13.87,11.91,0,17.91-4.32,20.85-7.93,6.37,5.35,14.76,8.28,24.81,8.28,24.53,0,39.11-17.06,39.11-43.9C246.21,370.9,231.46,354,207.1,354Zm-68.8,54.21c-.17-.53-2.84,17.07-19.55,17.07-10.49,0-20.26-8.36-20.26-27.2,0-18.66,8.71-27.55,20.09-27.55,14.93,0,19.55,13.33,19.72,16Zm68.8,17.07c-12.62,0-19.91-9.42-19.91-27.37s7.47-27.38,19.91-27.38c12.62,0,20.09,9.42,20.09,27.38S220.09,425.29,207.1,425.29Z"/><path class="cls-1" d="M531.85,440.57V426.36c-5.5,0-7.11-3-7.11-8.18V324.75H505.37v96.1c0,14.22,6.58,20.62,18,20.62A34.59,34.59,0,0,0,531.85,440.57Z"/><path class="cls-1" d="M612.73,397.92c0-27-14.75-43.91-39.1-43.91-24.18,0-38.75,16.89-38.75,43.91s14.57,43.9,38.75,43.9C598.16,441.82,612.73,424.76,612.73,397.92Zm-39.1,27.37c-12.62,0-19.91-9.42-19.91-27.37s7.46-27.38,19.91-27.38c12.62,0,20.09,9.42,20.09,27.38S586.6,425.29,573.63,425.29Z"/><path class="cls-1" d="M390,441.82c19.37,0,25.59-12.44,26.83-15.11v.89c0,8.71,6.22,13.87,15.83,13.87.52,0,1,0,1.49,0V355.08H416.78v10.48C414.65,363.61,407,354,391,354c-18.66,0-35,12.44-35,44.26a72.38,72.38,0,0,0,.55,9c-3.58,4.41-16.38,18.05-37.53,18.05-10.31,0-23.64-5.87-23.64-27.56,0-19.19,8.17-27.19,21.15-27.19,12.27,0,15.29,8.18,15.29,14.4a21.35,21.35,0,0,1-1.06,6.22h17.06a30,30,0,0,0,1.42-9.78c0-14.4-10.13-27.37-32.71-27.37-26.13,0-40,15.82-40,43.91,0,30,18,43.9,39.82,43.9,26.32,0,39.78-11,45.4-17.4C368.17,436.38,379.09,441.82,390,441.82Zm5-71.28c14.93,0,19.56,13.33,19.73,16v21.69c-.17-.53-2.84,17.07-19.55,17.07-10.49,0-20.27-8.36-20.27-27.2C374.83,379.43,383.54,370.54,394.92,370.54Z"/><path class="cls-1" d="M483.15,371.61c6.93,0,10.3,2.31,10.3,2.31l7.82-17.06S496.83,354,488.65,354c-16.35,0-23.64,8.71-26.13,16.89v-2.49c0-9.43-7.11-14.05-15.64-14.05-.32,0-.61,0-.91,0l0,86.36h19.19V391.87C465.37,383.34,470.52,371.61,483.15,371.61Z"/><path class="cls-1" d="M137,339.8c9.25-2.31,12.11-9.12,12.71-15H126.77c-4.3-.07-14.26-.06-17,.62-9.25,2.3-12.11,9.11-12.71,15H125.4C129.7,340.48,134.25,340.48,137,339.8Z"/><path class="cls-1" d="M53.94,508.44c-6.17-1.68-7.85-2.65-7.85-5.73,0-3.79,2.39-4.85,7.14-4.85A36.79,36.79,0,0,1,64.6,500l1.67-6.88a41,41,0,0,0-13.74-2.46c-9.61,0-14.37,4.14-14.37,12.42,0,6.7,3.35,10.49,12.52,12.6,6,1.5,8.19,2.64,8.19,6.17S56.49,526.5,52,526.5c-4.23,0-8.11-1.15-12.25-2.47l-1.85,7.32a41.76,41.76,0,0,0,14.72,2.55c10,0,14.45-4,14.45-12.51C67.07,514.08,64.34,510.9,53.94,508.44Z"/><path class="cls-1" d="M91.65,490.64a33.13,33.13,0,0,0-16.83,4.67l2.91,7a26.54,26.54,0,0,1,12.6-3.79c5.37,0,7.22,1.58,7.22,8.37v2.91a43,43,0,0,0-7.66-.62c-9.34,0-16.22,3-16.22,13,0,8.55,5.55,11.9,14.63,11.9,6.17,0,12.69-1.32,17.27-3.61V506.32C105.57,493.46,101.17,490.64,91.65,490.64Zm6.17,35.07a26.89,26.89,0,0,1-8.73,1.41c-4.67,0-7.22-1.59-7.22-5.55,0-4.68,3.43-6,8.37-6a32.66,32.66,0,0,1,7.58.8Z"/><path class="cls-1" d="M143.28,524.38a20.53,20.53,0,0,1-8.63,1.68c-6.61,0-9.52-3.35-9.52-10.66V491.87H117.2v23.7c0,12.25,4,18.33,17.45,18.33a41.66,41.66,0,0,0,16.65-3.61V491.87h-8Z"/><polygon class="cls-1" points="142.31 470.19 127.95 483.23 131.83 487.55 146.63 474.86 142.31 470.19"/><path class="cls-1" d="M189,493.28a27.29,27.29,0,0,0-11.72-2.64c-9.34,0-15.16,5.9-15.16,21.85,0,15.68,6.26,21.41,18.42,21.41A39.42,39.42,0,0,0,197,530.2V470.28h-8Zm0,31a20.9,20.9,0,0,1-8.46,1.67c-6.26,0-10.13-3.08-10.13-13.48s3.61-13.66,9.16-13.66a19.17,19.17,0,0,1,9.43,2.64Z"/><path class="cls-1" d="M225.13,490.64c-10.84,0-17.27,5.64-17.27,21.5,0,16.39,5.81,21.76,18.15,21.76a29.16,29.16,0,0,0,15.34-4.14l-2.74-7.14c-1.58,1.24-5.46,3.62-12.24,3.62-6.44,0-10.23-2.38-10.4-11.46h25.55v-4.23C241.52,498.48,238.09,490.64,225.13,490.64ZM216,508.26c.26-7.76,3.34-10.4,9.07-10.4,7.05,0,8.64,2.91,8.64,10.4Z"/><path class="cls-1" d="M288,490.64c-13.3,0-18.68,6.43-18.68,21.41,0,14.8,5.38,21.85,18.68,21.85s18.68-7,18.68-21.85C306.63,497.07,301.08,490.64,288,490.64Zm0,35.69c-7.49,0-10.4-4.68-10.4-14.28s2.91-13.92,10.4-13.92,10.4,4.31,10.4,13.92S295.36,526.33,288,526.33Z"/><path class="cls-1" d="M334.12,490.64a40.61,40.61,0,0,0-16.74,3.78v38.34h8.1V500.15a23.67,23.67,0,0,1,8.64-1.67c6.61,0,9.43,3.43,9.43,10.75v23.53h8V509.05C351.57,496.72,347.51,490.64,334.12,490.64Z"/><path class="cls-1" d="M380.64,526.15c-6.61,0-10.4-3-10.4-13.84s3.7-13.83,9.87-13.83c5.9,0,8.55,2,10.31,3.35l2.65-7c-2.65-1.77-6.08-4.23-14.19-4.23-10.93,0-17,5.46-17,21.5,0,16.47,5.2,21.76,17.54,21.76a25.48,25.48,0,0,0,14.89-4.4l-3-6.88A17.58,17.58,0,0,1,380.64,526.15Z"/><path class="cls-1" d="M419.5,490.64c-13.31,0-18.68,6.43-18.68,21.41,0,14.8,5.37,21.85,18.68,21.85s18.67-7,18.67-21.85C438.17,497.07,432.63,490.64,419.5,490.64Zm0,35.69c-7.49,0-10.4-4.68-10.4-14.28s2.91-13.92,10.4-13.92,10.39,4.31,10.39,13.92S426.9,526.33,419.5,526.33Z"/><rect class="cls-1" x="448.92" y="470.28" width="8.11" height="62.47"/><path class="cls-1" d="M486.46,490.64c-13.31,0-18.68,6.43-18.68,21.41,0,14.8,5.37,21.85,18.68,21.85s18.68-7,18.68-21.85C505.14,497.07,499.59,490.64,486.46,490.64Zm0,35.69c-7.49,0-10.4-4.68-10.4-14.28s2.91-13.92,10.4-13.92,10.39,4.31,10.39,13.92S493.86,526.33,486.46,526.33Z"/><polygon class="cls-1" points="484.08 487.55 498.88 474.86 494.56 470.19 480.2 483.23 484.08 487.55"/><path class="cls-1" d="M513.59,512.31c0,15.78,5.73,21.59,14.89,21.59a26.23,26.23,0,0,0,12-3v6.6c0,5.91-2.82,8.29-9,8.29a28.22,28.22,0,0,1-12.87-3.09l-2.9,7.32c3.87,1.94,9.07,3.26,15.86,3.26,10.75,0,16.92-2.91,16.92-15.86v-43a40.19,40.19,0,0,0-16.75-3.78C519.76,490.64,513.59,496.45,513.59,512.31Zm26.88-12.07v23c-2.91,1.32-5.64,2.55-9.43,2.55-5.55,0-9.25-3.17-9.25-13.74s4-13.48,10.22-13.48A22.57,22.57,0,0,1,540.47,500.24Z"/><path class="cls-1" d="M566.1,473.63c-3.43,0-4.58,1.23-4.58,4.67,0,3.26,1.15,4.49,4.58,4.49s4.59-1.23,4.59-4.49C570.69,474.86,569.45,473.63,566.1,473.63Z"/><rect class="cls-1" x="562.05" y="491.87" width="8.02" height="40.89"/><path class="cls-1" d="M600,526.15c-6.61,0-10.4-3-10.4-13.84s3.7-13.83,9.87-13.83c5.9,0,8.55,2,10.31,3.35l2.64-7c-2.64-1.77-6.08-4.23-14.18-4.23-10.93,0-17,5.46-17,21.5,0,16.47,5.2,21.76,17.53,21.76a25.48,25.48,0,0,0,14.89-4.4l-3-6.88A17.58,17.58,0,0,1,600,526.15Z"/><path class="cls-1" d="M636.77,490.64a33.13,33.13,0,0,0-16.83,4.67l2.91,7a26.54,26.54,0,0,1,12.6-3.79c5.37,0,7.22,1.58,7.22,8.37v2.91a43,43,0,0,0-7.66-.62c-9.34,0-16.22,3-16.22,13,0,8.55,5.55,11.9,14.63,11.9,6.17,0,12.69-1.32,17.27-3.61V506.32C650.69,493.46,646.28,490.64,636.77,490.64Zm6.16,35.07a26.77,26.77,0,0,1-8.72,1.41c-4.67,0-7.23-1.59-7.23-5.55,0-4.68,3.44-6,8.38-6a32.5,32.5,0,0,1,7.57.8Z"/></g></g></svg>