<?xml version="1.0" encoding="utf-8"?>
<!-- Generator: Adobe Illustrator 24.2.3, SVG Export Plug-In . SVG Version: 6.00 Build 0)  -->
<svg version="1.1" id="Camada_1" xmlns="http://www.w3.org/2000/svg" xmlns:xlink="http://www.w3.org/1999/xlink" x="0px" y="0px"
	 viewBox="0 0 688.6 553.3" style="enable-background:new 0 0 688.6 553.3;" xml:space="preserve">
<style type="text/css">
	.st0{fill:#4CC0AD;}
	.st1{fill:#42336F;}
</style>
<g>
	<path class="st0" d="M344.3,89.5c49.4,0,89.5-40.1,89.5-89.5h-179C254.8,49.4,294.8,89.5,344.3,89.5
		C344.3,89.5,344.3,89.5,344.3,89.5z"/>
	<path class="st0" d="M344.3,206.2c-49.4,0-89.5,40.1-89.5,89.5h179C433.8,246.3,393.7,206.2,344.3,206.2
		C344.3,206.2,344.3,206.2,344.3,206.2z"/>
	<path class="st0" d="M285.9,147.8c0-49.4-40.1-89.5-89.5-89.5c0,0,0,0,0,0v179C245.9,237.3,285.9,197.3,285.9,147.8
		C285.9,147.8,285.9,147.8,285.9,147.8z"/>
	<path class="st1" d="M402.6,147.8c0,49.4,40.1,89.5,89.5,89.5v-179C442.7,58.3,402.6,98.4,402.6,147.8
		C402.6,147.8,402.6,147.8,402.6,147.8z"/>
	<path class="st1" d="M23.1,380.1c0-6.8,5.3-10.8,16-10.8c11.9,0,16.2,4.6,16.2,10.5c0,2.2-0.2,4.4-0.7,6.6h16.9
		c1-2.6,1.4-5.4,1.4-8.2c0-11.9-8-24.2-34.1-24.2c-25.4,0-34.7,13-34.7,26.7c0,33.3,49.4,19.7,49.4,36.3c0,5.9-5,9.4-16,9.4
		c-17.4,0-26.5-13.5-26.5-13.5L0,424.4c0,0,8.4,17.4,38.4,17.4c23.8,0,35.2-10.1,35.2-25.8C73.6,383.7,23.1,399.9,23.1,380.1z"/>
	<path class="st1" d="M638.1,380.1c0-6.8,5.3-10.8,16-10.8c11.9,0,16.2,4.6,16.2,10.5c0,2.2-0.2,4.4-0.7,6.6h16.9
		c1-2.6,1.4-5.4,1.4-8.2c0-11.9-8-24.2-34.1-24.2c-25.4,0-34.7,13-34.7,26.7c0,33.3,49.4,19.7,49.4,36.3c0,5.9-5,9.4-16,9.4
		c-17.4,0-26.5-13.5-26.5-13.5l-11,11.6c0,0,8.3,17.4,38.4,17.4c23.8,0,35.2-10.1,35.2-25.8C688.6,383.7,638.1,399.9,638.1,380.1z"
		/>
	<path class="st1" d="M207.1,354c-24.2,0-38.8,16.9-38.8,43.9c0,9.7,1.9,18.1,5.4,24.9c-5.4,4.5-16.3,5.7-16.3-4.7v-63.1h-17.1v10.5
		c-2.1-2-9.8-11.5-25.8-11.5c-18.7,0-35,12.4-35,44.3c0,30.4,17.1,43.5,33.9,43.5c19.4,0,25.6-12.4,26.8-15.1v0.9
		c0,6.1,9.3,13.9,21,13.9c11.9,0,17.9-4.3,20.9-7.9c6.4,5.4,14.8,8.3,24.8,8.3c24.5,0,39.1-17.1,39.1-43.9
		C246.2,370.9,231.5,354,207.1,354z M138.3,408.2c-0.2-0.5-2.8,17.1-19.6,17.1c-10.5,0-20.3-8.4-20.3-27.2
		c0-18.7,8.7-27.5,20.1-27.5c14.9,0,19.6,13.3,19.7,16V408.2z M207.1,425.3c-12.6,0-19.9-9.4-19.9-27.4s7.5-27.4,19.9-27.4
		c12.6,0,20.1,9.4,20.1,27.4S220.1,425.3,207.1,425.3L207.1,425.3z"/>
	<path class="st1" d="M531.8,440.6v-14.2c-5.5,0-7.1-3-7.1-8.2v-93.4h-19.4v96.1c0,14.2,6.6,20.6,18,20.6
		C526.2,441.5,529.1,441.2,531.8,440.6z"/>
	<path class="st1" d="M612.7,397.9c0-27-14.8-43.9-39.1-43.9c-24.2,0-38.8,16.9-38.8,43.9s14.6,43.9,38.8,43.9
		C598.2,441.8,612.7,424.8,612.7,397.9z M573.6,425.3c-12.6,0-19.9-9.4-19.9-27.4s7.5-27.4,19.9-27.4c12.6,0,20.1,9.4,20.1,27.4
		S586.6,425.3,573.6,425.3z"/>
	<path class="st1" d="M390,441.8c19.4,0,25.6-12.4,26.8-15.1v0.9c0,8.7,6.2,13.9,15.8,13.9c0.5,0,1,0,1.5,0v-86.4h-17.4v10.5
		c-2.1-2-9.8-11.6-25.8-11.6c-18.7,0-35,12.4-35,44.3c0,3,0.2,6,0.5,9c-3.6,4.4-16.4,18-37.5,18c-10.3,0-23.6-5.9-23.6-27.6
		c0-19.2,8.2-27.2,21.1-27.2c12.3,0,15.3,8.2,15.3,14.4c0,2.1-0.4,4.2-1.1,6.2h17.1c1-3.2,1.5-6.5,1.4-9.8
		c0-14.4-10.1-27.4-32.7-27.4c-26.1,0-40,15.8-40,43.9c0,30,18,43.9,39.8,43.9c26.3,0,39.8-11,45.4-17.4
		C368.2,436.4,379.1,441.8,390,441.8z M395,370.5c14.9,0,19.6,13.3,19.7,16v21.7c-0.2-0.5-2.8,17.1-19.5,17.1
		c-10.5,0-20.3-8.4-20.3-27.2C374.8,379.4,383.5,370.5,395,370.5L395,370.5z"/>
	<path class="st1" d="M483.1,371.6c6.9,0,10.3,2.3,10.3,2.3l7.8-17.1c0,0-4.4-2.9-12.6-2.9c-16.4,0-23.6,8.7-26.1,16.9v-2.5
		c0-9.4-7.1-14-15.6-14c-0.3,0-0.6,0-0.9,0v86.4h19.2v-48.8C465.4,383.3,470.5,371.6,483.1,371.6z"/>
	<path class="st1" d="M137,339.8c9.3-2.3,12.1-9.1,12.7-15h-22.9c-4.3-0.1-14.3-0.1-17,0.6c-9.3,2.3-12.1,9.1-12.7,15h28.3
		C129.7,340.5,134.3,340.5,137,339.8z"/>
	<path class="st1" d="M53.9,508.4c-6.2-1.7-7.8-2.6-7.8-5.7c0-3.8,2.4-4.9,7.1-4.9c3.9,0.1,7.7,0.8,11.4,2.1l1.7-6.9
		c-4.4-1.6-9.1-2.4-13.7-2.5c-9.6,0-14.4,4.1-14.4,12.4c0,6.7,3.3,10.5,12.5,12.6c6,1.5,8.2,2.6,8.2,6.2s-2.4,4.7-6.9,4.7
		c-4.2,0-8.1-1.2-12.3-2.5l-1.8,7.3c4.7,1.7,9.7,2.6,14.7,2.5c10,0,14.4-4,14.4-12.5C67.1,514.1,64.3,510.9,53.9,508.4z"/>
	<path class="st1" d="M91.7,490.6c-5.9,0-11.7,1.6-16.8,4.7l2.9,7c3.8-2.3,8.1-3.6,12.6-3.8c5.4,0,7.2,1.6,7.2,8.4v2.9
		c-2.5-0.4-5.1-0.6-7.7-0.6c-9.3,0-16.2,3-16.2,13c0,8.5,5.6,11.9,14.6,11.9c6.2,0,12.7-1.3,17.3-3.6v-24.2
		C105.6,493.5,101.2,490.6,91.7,490.6z M97.8,525.7c-2.8,0.9-5.8,1.4-8.7,1.4c-4.7,0-7.2-1.6-7.2-5.5c0-4.7,3.4-6,8.4-6
		c2.5,0,5.1,0.2,7.6,0.8V525.7z"/>
	<path class="st1" d="M143.3,524.4c-2.7,1.2-5.7,1.7-8.6,1.7c-6.6,0-9.5-3.3-9.5-10.7v-23.5h-7.9v23.7c0,12.3,4,18.3,17.4,18.3
		c5.7,0,11.4-1.3,16.6-3.6v-38.4h-8L143.3,524.4z"/>
	<polygon class="st1" points="142.3,470.2 127.9,483.2 131.8,487.6 146.6,474.9 	"/>
	<path class="st1" d="M189,493.3c-3.7-1.7-7.7-2.6-11.7-2.6c-9.3,0-15.2,5.9-15.2,21.9c0,15.7,6.3,21.4,18.4,21.4
		c5.7,0,11.3-1.3,16.5-3.7v-59.9h-8V493.3z M189,524.3c-2.7,1.1-5.6,1.7-8.5,1.7c-6.3,0-10.1-3.1-10.1-13.5s3.6-13.7,9.2-13.7
		c3.3,0,6.6,1,9.4,2.6V524.3z"/>
	<path class="st1" d="M225.1,490.6c-10.8,0-17.3,5.6-17.3,21.5c0,16.4,5.8,21.8,18.1,21.8c5.4,0.1,10.7-1.4,15.3-4.1l-2.7-7.1
		c-1.6,1.2-5.5,3.6-12.2,3.6c-6.4,0-10.2-2.4-10.4-11.5h25.6v-4.2C241.5,498.5,238.1,490.6,225.1,490.6z M216,508.3
		c0.3-7.8,3.3-10.4,9.1-10.4c7.1,0,8.6,2.9,8.6,10.4H216z"/>
	<path class="st1" d="M288,490.6c-13.3,0-18.7,6.4-18.7,21.4c0,14.8,5.4,21.8,18.7,21.8s18.7-7,18.7-21.8
		C306.6,497.1,301.1,490.6,288,490.6z M288,526.3c-7.5,0-10.4-4.7-10.4-14.3s2.9-13.9,10.4-13.9s10.4,4.3,10.4,13.9
		C298.4,521.7,295.4,526.3,288,526.3z"/>
	<path class="st1" d="M334.1,490.6c-5.8,0.1-11.5,1.3-16.7,3.8v38.3h8.1v-32.6c2.8-1.1,5.7-1.7,8.6-1.7c6.6,0,9.4,3.4,9.4,10.8v23.5
		h8v-23.7C351.6,496.7,347.5,490.6,334.1,490.6z"/>
	<path class="st1" d="M380.6,526.2c-6.6,0-10.4-3-10.4-13.8s3.7-13.8,9.9-13.8c5.9,0,8.5,2,10.3,3.4l2.6-7
		c-2.6-1.8-6.1-4.2-14.2-4.2c-10.9,0-17,5.5-17,21.5c0,16.5,5.2,21.8,17.5,21.8c5.3,0.1,10.5-1.4,14.9-4.4l-3-6.9
		C388.2,524.9,384.5,526.2,380.6,526.2z"/>
	<path class="st1" d="M419.5,490.6c-13.3,0-18.7,6.4-18.7,21.4c0,14.8,5.4,21.8,18.7,21.8s18.7-7,18.7-21.8
		C438.2,497.1,432.6,490.6,419.5,490.6z M419.5,526.3c-7.5,0-10.4-4.7-10.4-14.3s2.9-13.9,10.4-13.9s10.4,4.3,10.4,13.9
		C429.9,521.7,426.9,526.3,419.5,526.3z"/>
	<rect x="448.9" y="470.3" class="st1" width="8.1" height="62.5"/>
	<path class="st1" d="M486.5,490.6c-13.3,0-18.7,6.4-18.7,21.4c0,14.8,5.4,21.8,18.7,21.8s18.7-7,18.7-21.8
		C505.1,497.1,499.6,490.6,486.5,490.6z M486.5,526.3c-7.5,0-10.4-4.7-10.4-14.3s2.9-13.9,10.4-13.9s10.4,4.3,10.4,13.9
		C496.9,521.7,493.9,526.3,486.5,526.3z"/>
	<polygon class="st1" points="484.1,487.6 498.9,474.9 494.6,470.2 480.2,483.2 	"/>
	<path class="st1" d="M513.6,512.3c0,15.8,5.7,21.6,14.9,21.6c4.2,0,8.3-1.1,12-3v6.6c0,5.9-2.8,8.3-9,8.3c-4.5,0-8.9-1.1-12.9-3.1
		l-2.9,7.3c3.9,1.9,9.1,3.3,15.9,3.3c10.8,0,16.9-2.9,16.9-15.9v-43c-5.2-2.5-11-3.7-16.8-3.8C519.8,490.6,513.6,496.5,513.6,512.3z
		 M540.5,500.2v23c-2.9,1.3-5.6,2.5-9.4,2.5c-5.5,0-9.3-3.2-9.3-13.7s4-13.5,10.2-13.5C534.9,498.6,537.8,499.1,540.5,500.2
		L540.5,500.2z"/>
	<path class="st1" d="M566.1,473.6c-3.4,0-4.6,1.2-4.6,4.7c0,3.3,1.2,4.5,4.6,4.5s4.6-1.2,4.6-4.5
		C570.7,474.9,569.5,473.6,566.1,473.6z"/>
	<rect x="562" y="491.9" class="st1" width="8" height="40.9"/>
	<path class="st1" d="M600,526.2c-6.6,0-10.4-3-10.4-13.8s3.7-13.8,9.9-13.8c5.9,0,8.5,2,10.3,3.4l2.6-7c-2.6-1.8-6.1-4.2-14.2-4.2
		c-10.9,0-17,5.5-17,21.5c0,16.5,5.2,21.8,17.5,21.8c5.3,0.1,10.5-1.4,14.9-4.4l-3-6.9C607.6,524.9,603.8,526.2,600,526.2z"/>
	<path class="st1" d="M636.8,490.6c-5.9,0-11.7,1.6-16.8,4.7l2.9,7c3.8-2.3,8.1-3.6,12.6-3.8c5.4,0,7.2,1.6,7.2,8.4v2.9
		c-2.5-0.4-5.1-0.6-7.7-0.6c-9.3,0-16.2,3-16.2,13c0,8.5,5.5,11.9,14.6,11.9c6.2,0,12.7-1.3,17.3-3.6v-24.2
		C650.7,493.5,646.3,490.6,636.8,490.6z M642.9,525.7c-2.8,0.9-5.8,1.4-8.7,1.4c-4.7,0-7.2-1.6-7.2-5.5c0-4.7,3.4-6,8.4-6
		c2.5,0,5.1,0.2,7.6,0.8L642.9,525.7z"/>
</g>
</svg>
